<?xml version="1.0" encoding="UTF-8"?>
<svg version="1.1" xmlns="http://www.w3.org/2000/svg" width="120" height="120">
<path d="M0 0 C39.6 0 79.2 0 120 0 C120 39.6 120 79.2 120 120 C80.4 120 40.8 120 0 120 C0 80.4 0 40.8 0 0 Z " fill="#090A08" transform="translate(0,0)"/>
<path d="M0 0 C0 6.6 0 13.2 0 20 C-1.65 19.01 -3.3 18.02 -5 17 C-5.67204468 18.17804199 -5.67204468 18.17804199 -6.35766602 19.37988281 C-8.05512564 22.35475347 -9.75310642 25.32932549 -11.45141602 28.30371094 C-12.17980803 29.57963736 -12.90800511 30.85567509 -13.63598633 32.13183594 C-13.9862085 32.74575195 -14.33643066 33.35966797 -14.69726562 33.9921875 C-15.22174538 34.91242706 -15.22174538 34.91242706 -15.75682068 35.85125732 C-16.46373653 37.08675416 -17.17424794 38.32020059 -17.88832092 39.55157471 C-19.61035394 42.52577743 -21.27587925 45.5064171 -22.82788086 48.57324219 C-27.10846004 56.72110324 -27.10846004 56.72110324 -31.74609375 58.171875 C-32.96425781 58.03265625 -34.18242188 57.8934375 -35.4375 57.75 C-36.67371094 57.64171875 -37.90992188 57.5334375 -39.18359375 57.421875 C-40.11300781 57.28265625 -41.04242188 57.1434375 -42 57 C-42.32049316 56.42894531 -42.64098633 55.85789063 -42.97119141 55.26953125 C-44.52044966 52.51188444 -46.07231889 49.7557211 -47.625 47 C-48.48786621 45.4679895 -48.48786621 45.4679895 -49.36816406 43.9050293 C-52.51660114 38.33331404 -55.69922035 32.78499392 -58.9453125 27.26953125 C-59.89929932 25.64821289 -59.89929932 25.64821289 -60.87255859 23.99414062 C-62.10805461 21.90038456 -63.34785246 19.80916 -64.59228516 17.72070312 C-65.1547998 16.76744141 -65.71731445 15.81417969 -66.296875 14.83203125 C-66.79541992 13.99389893 -67.29396484 13.1557666 -67.80761719 12.29223633 C-68.91212979 10.16892167 -69.54408729 8.33840184 -70 6 C-63.30958781 4.54614785 -56.50189922 3.26685754 -50 6 C-44.16627347 11.75433868 -40.88807386 19.57993187 -37.48535156 26.92480469 C-35.29070449 31.46848886 -32.68515553 35.73267004 -30 40 C-25.7765859 35.21278062 -22.85889645 29.72475696 -19.75 24.1875 C-19.19570312 23.20845703 -18.64140625 22.22941406 -18.0703125 21.22070312 C-16.70959829 18.81599267 -15.35297444 16.4090709 -14 14 C-15.98 13.67 -17.96 13.34 -20 13 C-17.91436176 10.78275162 -15.82427857 9.12571641 -13.2421875 7.51953125 C-12.53449219 7.07802734 -11.82679687 6.63652344 -11.09765625 6.18164062 C-9.99744141 5.50391602 -9.99744141 5.50391602 -8.875 4.8125 C-8.13378906 4.34908203 -7.39257812 3.88566406 -6.62890625 3.40820312 C-1.13763347 0 -1.13763347 0 0 0 Z " fill="#FBFBFB" transform="translate(94,35)"/>
<path d="M0 0 C0 6.6 0 13.2 0 20 C-1.65 19.01 -3.3 18.02 -5 17 C-5.67204468 18.17804199 -5.67204468 18.17804199 -6.35766602 19.37988281 C-8.05512564 22.35475347 -9.75310642 25.32932549 -11.45141602 28.30371094 C-12.17980803 29.57963736 -12.90800511 30.85567509 -13.63598633 32.13183594 C-13.9862085 32.74575195 -14.33643066 33.35966797 -14.69726562 33.9921875 C-15.04691879 34.60568054 -15.39657196 35.21917358 -15.75682068 35.85125732 C-16.46373653 37.08675416 -17.17424794 38.32020059 -17.88832092 39.55157471 C-19.61035394 42.52577743 -21.27587925 45.5064171 -22.82788086 48.57324219 C-27.10846004 56.72110324 -27.10846004 56.72110324 -31.74609375 58.171875 C-32.96425781 58.03265625 -34.18242188 57.8934375 -35.4375 57.75 C-36.67371094 57.64171875 -37.90992188 57.5334375 -39.18359375 57.421875 C-40.11300781 57.28265625 -41.04242188 57.1434375 -42 57 C-40.68 56.34 -39.36 55.68 -38 55 C-38 54.34 -38 53.68 -38 53 C-37.34 53 -36.68 53 -36 53 C-36 52.01 -36 51.02 -36 50 C-35.34 50 -34.68 50 -34 50 C-34 48.68 -34 47.36 -34 46 C-33.34 46 -32.68 46 -32 46 C-32 45.01 -32 44.02 -32 43 C-31.01442724 41.98577797 -30.01082371 40.98905785 -29 40 C-27.76242774 38.03483729 -26.57694473 36.03652709 -25.42578125 34.01953125 C-25.09708542 33.44667892 -24.76838959 32.8738266 -24.42973328 32.28361511 C-23.3861375 30.46245096 -22.34924737 28.63756978 -21.3125 26.8125 C-20.60395552 25.57331608 -19.89497587 24.33438088 -19.18554688 23.09570312 C-17.45198175 20.06666642 -15.72440794 17.03426125 -14 14 C-16.97 13.505 -16.97 13.505 -20 13 C-17.91436176 10.78275162 -15.82427857 9.12571641 -13.2421875 7.51953125 C-12.53449219 7.07802734 -11.82679687 6.63652344 -11.09765625 6.18164062 C-9.99744141 5.50391602 -9.99744141 5.50391602 -8.875 4.8125 C-8.13378906 4.34908203 -7.39257812 3.88566406 -6.62890625 3.40820312 C-1.13763347 0 -1.13763347 0 0 0 Z " fill="#A4EE33" transform="translate(94,35)"/>
</svg>
